<?xml version="1.0" encoding="utf-8"?>
<!-- Generator: Adobe Illustrator 21.0.0, SVG Export Plug-In . SVG Version: 6.00 Build 0)  -->
<svg version="1.2" baseProfile="tiny" xmlns="http://www.w3.org/2000/svg" xmlns:xlink="http://www.w3.org/1999/xlink" x="0px"
	 y="0px" viewBox="0 0 289 101.8" xml:space="preserve">
<g id="rock-darker-back">
	<path fill="#262017" d="M0,70.6c0,0,9,6,18-1l0,0l-9.8-4.9c-1.3-0.7-2.9-0.3-3.8,0.8L0,70.6"/>
	<path fill="#262017" d="M39.8,96.4C39,96.1,39,95,39.8,94.7c4.3-2,15.7-6.2,25.2,0.9c0,0,0,0,0,0S51.4,101,39.8,96.4z"/>
	<path fill="#262017" d="M22,43.6c0,0-10,14-14,16c-3.6,1.8,9.9,4.4,16.2,4.9c0.8,0.1,1.3,1,0.9,1.7L22.3,71c-0.2,0.4-0.2,0.8,0,1.1
		l4.3,7c0.2,0.3,0.5,0.5,0.9,0.5c2.9,0.2,16.3,1.5,23.4,6c8,5,0,0,0,0l-1.4,2.7c-0.3,0.6,0,1.4,0.7,1.6L78,96.6c0,0,4,1,11,0
		c5.8-0.8,7.5,1.7,7.9,2.7c0.1,0.2,0.3,0.4,0.5,0.6c1.5,0.7,7.8,2.6,28.5,1.8c0,0,0.1,0,0.1,0l21.7-3.1c0,0,0.1,0,0.1,0l18.1-0.9
		c0,0,0,0,0.1,0c0.7,0,11.9,0.1,16.3-2.9c4.6-3.1,0,0,0,0s2.6,7.9,18.6,1.9c15.3-5.7,38.9-7.8,40.9-8c0.1,0,0.2,0,0.3-0.1l25.9-8.6
		c0.6-0.2,0.9-0.8,0.7-1.3l-2.4-9.7c-0.2-0.7,0.3-1.3,1-1.4c1.8-0.1,4.7-0.6,4.7-1.9c0-1.3,2.1-2.2,3.5-2.6c0.7-0.2,1-1.1,0.6-1.7v0
		c-0.5-0.7,0-1.7,0.9-1.7c3.9-0.1,12-0.5,12-2c0-2-9-11-19-7s0,0,0,0l-23-11.6c-0.3-0.2-0.5-0.4-0.6-0.8c-0.7-3.5-5.6-22.9-29.7-5.8
		c-0.6,0.4-1.5,0.1-1.7-0.6c-0.3-1-1-2.2-3-3.2c-3.8-1.9-41.6,7.2-44.8,7.9c-0.1,0-0.3,0-0.4,0c-1.2-0.2-7.3-1.5-11.8-6
		c-4.7-4.7-42.8,4.7-47.5,5.9c-0.3,0.1-0.6,0-0.9-0.1C103.1,34,78,18.1,65,24.6c-10.5,5.2-12.1,8.7-12.3,10.1
		c-0.1,0.5-0.4,0.8-0.9,0.9L22,43.6"/>
	<path fill="#262017" d="M22,43.6c0,0,7-9,11-8s2,8,2,8l-10,3L22,43.6"/>
	<path fill="#262017" d="M53.7,32.5c0,0,11.2-13.9,22.7-12.9s-2.4,15-2.4,15L53.7,32.5z"/>
	<path fill="#262017" d="M167,36.6c0,0,16-5,26-10s21,3.5,21,3.5l-10,14.5L167,36.6"/>
</g>
<g id="rock-darker-tones">
	<path fill="#38322A" d="M74,67.6c0,0-16,10-12,16s9,6,9,6s6,1,7,7c0,0,4-1,8-1s19-4,18-12S74,67.6,74,67.6"/>
	<path fill="#38322A" d="M107,84.6c0,0-11,4-3,10s17,6,17,6s27,0,28-4l0,0L107,84.6"/>
	<path fill="#38322A" d="M143,89.6c0,0-3,13,12,6c0,0,6-1,7-4s10-12,18-5c0,0-4-9.4-20-6.7c-16,2.7,0,0,0,0L143,89.6"/>
	<path fill="#38322A" d="M180,84.6c0,0-1,20,17,12c18-8,17-12,44.8-8c0.1,0,0.1-0.1,0.1-0.1L233,72.6c0,0,0,0,0,0
		c-0.2-0.2-9.5-8.7-17.2-9.9C208,61.6,180,84.6,180,84.6"/>
	<path fill="#38322A" d="M256,78.6c0,0,9,4,13,1l-9.4-19L256,78.6"/>
	<path fill="#38322A" d="M240.5,60c0,0,18.5,3.6,19.5-2.4c0,0,13.7,13.2,11.3-5.4c-0.3-2.6,0,0,0,0S265,41.6,259,42.6
		S240.5,60,240.5,60"/>
	<path fill="#38322A" d="M167,36.6c0,0-2,14,20,11s25-19,25-19s-7.3-5.9-30.2,3.1s0,0,0,0S176,35.6,167,36.6"/>
	<path fill="#38322A" d="M110,33.6l-3,3c0,0,5,10,11,10s31,0,31,0s11,2,16-10c0,0-3-1-10-6S138,12.6,110,33.6"/>
	<path fill="#38322A" d="M76.4,19.6c0,0-7.4,0-11.4,5c0,0,11,1,13,8s-2,17,15,17s14-13,14-13S93.9,21.6,76.4,19.6"/>
	<path fill="#38322A" d="M93,56.6c0,0,11,0,14-5s26,2,26,2s20,3,24-3c0,0,28-3,36,2s-2,17-2,17s-13.1,10.9-24,9.5
		c-11-1.5-18,3.5-18,3.5s-10,5-30-3S94,72.6,93,56.6z"/>
</g>
<g id="rock-dark-tones">
	<path fill="#4E473B" d="M0,70.6l6-6c0,0,0,5,7,5s5,0,5,0s-1-4-5-6C9,61.6,1,65.6,0,70.6z"/>
	<path fill="#4E473B" d="M46,92.6c0,0,2,4,13,4s6-1,6-1S55,89.6,46,92.6z"/>
	<path fill="#4E473B" d="M22,43.6c0,0,4-4,10-6c0,0-12,10-13,14s4,14,16,10l9-4c0,0-12,8-8,13s4,9,15,15c0,0,3-5,6-6s12-9,12-9l5-3
		c0,0,6-2,4-5c-2-3-20-16-20-16s-5,0-6-5s-14.2-9.9-14.2-9.9S25,37.6,22,43.6z"/>
	<path fill="#4E473B" d="M75,68.6c0,0-3,4-9,7c-5.7,2.8,2.9,3,3.9,3c0.1,0,0.1,0,0.2,0c0.6-0.1,5.1-0.5,6.9,6c2,7,9,8,17,6
		c6.5-1.6,9-5.2,9.8-6.5c0.2-0.3,0.1-0.6,0-0.9l-5.7-8.5c0-0.1-0.1-0.1-0.1-0.2C96.8,73.5,82.7,60.9,75,68.6z"/>
	<path fill="#4E473B" d="M107,84.6c0,0-2,11,6,10c4.8-0.6,7.4,0.2,8.8,1c2.2,1.2,4.6,2,7.1,2.3c4.7,0.7,11.8,0.9,20.1-1.3l0,0
		c0,0-8.5-8-12.8-7.5C132,89.6,107,84.6,107,84.6"/>
	<path fill="#4E473B" d="M144,86.6c0,0-1,1-1,3c0,0-1,5,12,2s8-8,16-9l0,0c0,0-10-4.8-15-1.4S144,86.6,144,86.6"/>
	<path fill="#4E473B" d="M180,84.6c0,0,1,4,5,6s6,3,13-1s9-6,26-7s1-16,1-16s-7.4-6.1-11.7-5.1S190,71.6,180,84.6"/>
	<path fill="#4E473B" d="M245.1,75.7c0,0,5.9,2.9,10.9,2.9s5-4,5-4l-1-11c0,0,1-7-7-5s-6,3-6,3L245.1,75.7"/>
	<path fill="#4E473B" d="M236,49.6c0,0-7,8,1,10s15-4,15-4s2-3,8-1c4.7,1.6,6.3-4.3,6.8-6.9c0.1-0.7-0.1-1.4-0.7-1.9
		c-2.8-2.4-11.6-9.7-14.6-9.1C248,37.6,236,49.6,236,49.6"/>
	<path fill="#4E473B" d="M270,50.6c0,0,3,3,4,7c0,0,7-3,6-5S277,46.6,270,50.6z"/>
	<path fill="#4E473B" d="M167,36.6c0,0,10,6,23,5s11-15,11-15s-8.8,0.9-15.4,3.9C179,33.6,171,36.6,167,36.6z"/>
	<path fill="#4E473B" d="M110.4,33.1c-0.8,0.8-0.7,2.2,0.3,2.9c2.5,1.5,7.8,3.3,17.3,0.6c0,0,4-1,10,0s14,0,13-5s-3-12-23-8l0,0
		C128,23.6,118.2,25.4,110.4,33.1z"/>
	<path fill="#4E473B" d="M78,19.6c0,0,13.2,1.9,23.1,12c0.6,0.7,1,1.5,1.1,2.4c0.3,2.8,0.4,8.6-4.2,8.6c-6,0-6-2-6-2s-1-2-1-5
		c0-2.6-9.2-11.3-11.5-13.5c-0.3-0.3-0.7-0.6-1.1-0.7C77.2,20.8,74.9,19.6,78,19.6z"/>
	<path fill="#4E473B" d="M97,63.6c0,0,17-11,41-6s35-2,35-2s23-6,18,7s-24,9-24,9s-12-3-29,1s-34-3-34-3S92,66.6,97,63.6z"/>
	<path fill="#4E473B" d="M214,35.7c0,0-8.5,6.4-1.1,10c7.4,3.6,15.5-0.9,15.5-0.9s2.6-2.5,8,0.7c4.3,2.5,7.1-2.9,8.1-5.3
		c0.3-0.7,0.2-1.4-0.3-2c-2.2-2.9-9.4-11.9-12.4-11.8C228.2,26.4,214,35.7,214,35.7"/>
</g>
<g id="rock-mid-tones">
	<path fill="#6A6052" d="M38.9,31.2c-1.8,0.6-3.3,2-4.3,3.6c-2.5,4.4-6.8,13.8,2.4,13.8h8.5c0.3,0,0.5,0,0.8,0
		c1.4,0.1,7.1,0.5,9.7-3C58.8,41.9,50.5,27.1,38.9,31.2z"/>
	<path fill="#6A6052" d="M53.9,57.4c0.1,0.1,0.1,0.2,0.2,0.4c0.6,0.8,3.2,3.8,5.9,3.8c2.3,0,4,2.9,4.7,4.3c0.3,0.5,0.7,0.9,1.3,1.1
		c2.1,0.7,7.6,1.5,16.1-5.4l0,0c0,0-1.7-17.8-19.9-17.5c-4.5,0.1-8.6,3.3-9.2,7.8C52.6,53.5,52.8,55.4,53.9,57.4z"/>
	<path fill="#6A6052" d="M74,67.6c0,0-1,9,4,10s7,2,11,1s9-4,15,5l0,0C104,83.6,91,50.6,74,67.6"/>
	<path fill="#6A6052" d="M107,84.6c0,0,3,0,7,4s10,6,14,4s15-2,21,4C149,96.6,126,73.6,107,84.6"/>
	<path fill="#6A6052" d="M144,86.6c0,0,12,5,16,0c1.7-2.1,2.3-3.7,2.4-4.9c0.2-1.3-1.2-2.3-2.4-1.8L144,86.6"/>
	<path fill="#6A6052" d="M180,84.6c0,0,6-2,10,0s12-3,12-3s6-3,9-2s10-16,3-18S190,71.6,180,84.6"/>
	<path fill="#6A6052" d="M241.3,66.6l3.7-3l2-3h6c0,0,10,8-7,15c0,0-1.8,1.8-5.4-6.5C240.3,68.2,240.5,67.2,241.3,66.6z"/>
	<path fill="#6A6052" d="M236,49.6c0,0-2,7,0,9s7-2,7-2s6-5,10-7s4-5,3-9s-5-6-12,0S236,49.6,236,49.6z"/>
	<path fill="#6A6052" d="M180,33.6c0,0-1,5,4,4s8-2,8-2s2,0,2-3s1-3,1-3s3-3-4-1S180,33.6,180,33.6z"/>
	<path fill="#6A6052" d="M116,31.6c0,0,2,2,8,0s15-1,15-1s10,1,4-4s-10-6-21,0S116,31.6,116,31.6z"/>
	<path fill="#6A6052" d="M94,27.6l4,3c0,0,3,1,2,5s-1,6-3,2s-1-5-4-7S91,25.6,94,27.6z"/>
	<path fill="#6A6052" d="M221.7,30.1c-3.3,1.8-5.9,4.6-7.2,8.1c-0.5,1.4-0.8,2.9-0.3,3.8c1.3,2.5,7.3,0.3,7.3,0.3s7.3-2.9,11.7-3.5
		c4.4-0.7,5.4-3.5,5.7-7.6c0.3-4.1-2.9-7.3-11.4-3.7C225,28.4,223.2,29.3,221.7,30.1z"/>
</g>
<g id="rocks-light">
	<path fill="#A3937E" d="M180,84.6c0,0,18-25,34-23C214,61.6,201,65.6,180,84.6z"/>
	<path fill="#A3937E" d="M144,86.6c0,0,3-1,8-5s16-3,19,1c0,0-13-3-18,2S144,86.6,144,86.6z"/>
	<path fill="#A3937E" d="M107,84.6c0,0,16-12,42,12C149,96.6,127,77.6,107,84.6z"/>
	<path fill="#A3937E" d="M74,67.6c0,0,15-18,30,16C104,83.6,91,54.6,74,67.6z"/>
	<path fill="#A3937E" d="M62,45.6c0,0,13-5,20,16C82,61.6,71,47.6,62,45.6z"/>
</g>
<g id="Wood">
	<path fill="#33291C" d="M209.6,68.5l-2.6-4.4l-54.6-13.2l-37.9,0.9L103,48.2c0,0-13.5,4.6-16,13.3c-2.5,8.7,0,0,0,0l39.8,6.1
		L209.6,68.5"/>
	<path fill="#4D3E29" d="M153.2,55.2l56.4,13.2c0,0,7.1,7.9,0.9,9.7l-60.8-8.8l-34.4,3.5l-31.7,0.9c0,0,2.6-22,13.2-18.5l10.6,5.3
		l1.9-1L153.2,55.2z"/>
	<polygon fill="#655237" points="97.7,63.2 89.7,66.7 119.7,70.2 137.3,68.5 131.2,65.8 154.1,63.2 212.2,75.5 201.7,72 208.7,72 
		206.9,69.3 153.2,55.2 114.4,56.1 104.7,53.5 112.6,64.1 	"/>
	<polygon fill="#89704B" points="152.3,60.5 196.4,73.7 152.3,64.9 117.9,66.7 	"/>
	<polygon fill="#89704B" points="102.1,69.3 94.1,71.1 112.6,70.2 	"/>
	<path fill="#33291C" d="M85.9,69.2l4.6,2.6l55.6-16.1l33.4-20.2l12-2.7c0,0,9.8-11,7.5-20.1s0,0,0,0l-38.7,14.9L85.9,69.2"/>
	<path fill="#4D3E29" d="M143.1,52.2L85.9,69.2c0,0-10.4-3.5-5.7-8.2l58.9-23.2L168,17l27.9-17c0,0,8.9,21-2.3,23.3L181.4,24
		l-1.2,1.8L143.1,52.2z"/>
	<polygon fill="#655237" points="188.7,16.7 194,9.5 165.4,21.6 150.5,32.2 157.4,31.4 138.3,45.5 80,64.3 91.2,62 84.9,65.6 
		87.9,67.1 143.1,52.2 177.3,31.5 187.4,28.9 174.9,23.5 	"/>
	<polygon fill="#89704B" points="141.2,47 95.1,57.7 139,43.1 168.8,23.9 	"/>
	<polygon fill="#89704B" points="181.6,13.4 187.8,7.8 171.7,18 	"/>
	<path fill="#33291C" d="M207.5,71.4l-1.1-5.3c-0.1-0.3-0.2-0.5-0.4-0.6l-53-34.6c-0.1,0-0.2-0.1-0.2-0.1l-40.6-13.4
		c-0.1,0-0.2-0.1-0.3-0.1l-10.5-7.8c-0.2-0.1-0.4-0.2-0.6-0.2c-2.4,0-16.4,0.4-21.9,8.1c-6,8.4,0,0,0,0l40.2,21.6c0,0,0.1,0,0.1,0.1
		L207.5,71.4"/>
	<path fill="#4D3E29" d="M152.3,35.9l54.9,35.3c0.2,0.1,0.3,0.3,0.4,0.5c0.7,1.8,3.6,10.6-2.6,10.4c-0.2,0-0.3,0-0.5-0.1l-61.4-32.4
		c-0.1,0-0.1-0.1-0.2-0.1l-38-9.3c0,0,0,0-0.1,0L71.8,29.5c-0.6-0.2-0.9-0.9-0.6-1.4c2.4-4.4,11.9-20.4,20.6-13.8
		c0,0,0.1,0.1,0.1,0.1l8.9,9.3c0.2,0.2,0.5,0.3,0.8,0.3l1.7-0.2c0.1,0,0.2,0,0.4,0l48.3,12C152.1,35.8,152.2,35.8,152.3,35.9z"/>
	<path fill="#655237" d="M89.5,23.2l-6,0.5c-1,0.1-1.3,1.4-0.4,1.9L110.5,39c0.1,0,0.1,0.1,0.2,0.1l15.7,3.9c1,0.2,1.7-1,0.9-1.7
		l0,0c-0.8-0.7-0.1-1.9,0.9-1.7l21.7,5c0.1,0,0.2,0.1,0.3,0.1l57.4,35.3l-5.1-4c-0.9-0.7-0.1-2.1,0.9-1.7h0c0.8,0.3,1.5-0.4,1.3-1.2
		l-0.3-1.3c-0.1-0.2-0.2-0.4-0.4-0.6l-51.7-35.3c-0.1-0.1-0.2-0.1-0.2-0.1L110.5,22c-0.1,0-0.2-0.1-0.3-0.1l-6.9-4.8
		c-0.8-0.5-1.8,0.2-1.5,1.1l3,9.5c0.3,0.8-0.6,1.5-1.3,1.2L90,23.2C89.8,23.2,89.7,23.1,89.5,23.2z"/>
	<path fill="#89704B" d="M149.4,41.2l24.9,18.2c1,0.8,0,2.3-1.1,1.7l-25.5-15.3c-0.1,0-0.1-0.1-0.2-0.1l-22.2-6.6
		c-1.2-0.4-0.8-2.1,0.4-1.9l23.3,3.9C149.2,41.1,149.3,41.1,149.4,41.2z"/>
	<path fill="#89704B" d="M92.3,31.5c-0.1,0-0.2-0.1-0.3-0.1l-9-1.1l20.1,6.1L92.3,31.5z"/>
</g>
<g id="Layer_8">
	<path fill="#4E473B" d="M180,84.6c0,0,1,4,5,6s6,3,13-1s9-6,26-7s1-16,1-16s-7.4-6.1-11.7-5.1S190,71.6,180,84.6"/>
	<path fill="#6A6052" d="M53.9,57.4c0.1,0.1,0.1,0.2,0.2,0.4c0.6,0.8,3.2,3.8,5.9,3.8c2.3,0,4,2.9,4.7,4.3c0.3,0.5,0.7,0.9,1.3,1.1
		c2.1,0.7,7.6,1.5,16.1-5.4l0,0c0,0-1.7-17.8-19.9-17.5c-4.5,0.1-8.6,3.3-9.2,7.8C52.6,53.5,52.8,55.4,53.9,57.4z"/>
	<path fill="#6A6052" d="M74,67.6c0,0-1,9,4,10s7,2,11,1s9-4,15,5l0,0C104,83.6,91,50.6,74,67.6"/>
	<path fill="#6A6052" d="M180,84.6c0,0,6-2,10,0s12-3,12-3s6-3,9-2s10-16,3-18S190,71.6,180,84.6"/>
	<path fill="#A3937E" d="M180,84.6c0,0,18-25,34-23"/>
	<path fill="#A3937E" d="M74,67.6c0,0,15-18,30,16C104,83.6,91,54.6,74,67.6z"/>
	<path fill="#A3937E" d="M62,45.6c0,0,13-5,20,16C82,61.6,71,47.6,62,45.6z"/>
</g>
</svg>
